<?xml version="1.0" encoding="utf-8"?>
<!-- Generator: Adobe Illustrator 23.0.4, SVG Export Plug-In . SVG Version: 6.00 Build 0)  -->
<svg version="1.1" id="Layer_1" xmlns="http://www.w3.org/2000/svg" xmlns:xlink="http://www.w3.org/1999/xlink" x="0px" y="0px"
	 viewBox="0 0 210.2 16.6" style="enable-background:new 0 0 210.2 16.6;" xml:space="preserve">
<g>
	<path d="M14.4,15.1c1.8,0,2.6-1,2.6-3.8V0h1.6v12c0,3.1-2,4.6-4.3,4.6h-10C2,16.6,0.1,15,0,12.4h1.6c0.2,1.7,1.3,2.7,2.8,2.7H14.4z
		"/>
	<path d="M37.1,16.3l-2.4-5.5h-7.6l-2.4,5.5h-1.7L30,0h1.8l7,16.3H37.1z M30.9,1.8l-3.2,7.5h6.3L30.9,1.8z"/>
	<path d="M62.4,16.3l-5.5-7.4h1.6c2.9,0,4.6-1.5,4.6-3.7c0-1.5-0.9-3.7-4.7-3.7H45.3v14.8h-1.6V0h14.9c4.2,0,6.1,2.5,6.1,5.3
		c0,2.6-2,4.7-4.8,5l4.6,6.1H62.4z"/>
	<path d="M70.3,16.3V0h8.9v1.5h-7.3v5.9h7v1.5h-7v6h7.3v1.5H70.3z"/>
	<path d="M84.8,16.3V0h14.8c2,0,3.9,0.5,5.4,1.4c2.2,1.5,3.5,4,3.5,6.8c0,2-0.8,4-2.4,5.6c-1.6,1.7-3.9,2.4-6.6,2.4H84.8z
		 M99.5,14.8c2.7,0,4.5-0.7,5.7-2c1.2-1.3,1.8-3,1.8-4.7c0-2.1-0.9-4-2.6-5.3c-1.1-0.9-2.9-1.4-5-1.4H86.5v13.3H99.5z"/>
	<path d="M123.6,16.3V0h1.6v14.8h6.7v1.5H123.6z"/>
	<path d="M136.7,16.3V0h18.9v1.5h-17.3v5.9h17v1.5h-17v6h17.3v1.5H136.7z"/>
	<path d="M161.3,16.3V0h4.2c3.4,0,5.2,1.9,5.2,4.3c0,1.3-0.5,2.2-1.8,3.3c1.7,0.7,2.7,2.3,2.7,4c0,2.2-1.3,4.7-5.5,4.7H161.3z
		 M165.5,7c3.1,0,3.6-1.8,3.6-2.8c0-1.2-0.7-2.8-3.7-2.8h-2.4V7H165.5z M166,14.8c2.1,0,4-0.8,4-3.2c0-1.8-1.6-3.1-4-3.1h-3.1v6.3
		H166z"/>
	<path d="M177.2,16.3V0h18.9v1.5h-17.3v5.9h17v1.5h-17v6h17.3v1.5H177.2z"/>
	<path d="M210.2,0v16.3h-1.6V1.5h-6.7V0H210.2z"/>
	<path d="M18.7,0l-1.6,1.5H0V0H18.7z"/>
</g>
</svg>
